<?xml version="1.0" encoding="UTF-8"?>
<svg width="2102px" height="351px" viewBox="0 0 2102 351" version="1.1" xmlns="http://www.w3.org/2000/svg" xmlns:xlink="http://www.w3.org/1999/xlink">
    <title>Group 2</title>
    <defs>
        <filter color-interpolation-filters="auto" id="filter-1">
            <feColorMatrix in="SourceGraphic" type="matrix" values="0 0 0 0 1.000000 0 0 0 0 1.000000 0 0 0 0 1.000000 0 0 0 1.000000 0"></feColorMatrix>
        </filter>
        <path d="M142.842484,0 C187.480164,0 224,36.4522689 224,81 C224,125.552269 187.480164,162 142.842484,162 L142.842484,162 L43.6014655,162 L53.1447281,131.360672 L44.7859049,131.360672 C40.159089,131.360672 36.374339,127.58521 36.374339,122.965714 C36.374339,118.350756 40.159089,114.575294 44.7859049,114.575294 L44.7859049,114.575294 L92.8568674,114.575294 L87.6266921,131.360672 L142.842484,131.360672 C170.597923,131.360672 193.304605,108.698824 193.304605,81 C193.304605,53.3011765 170.597923,30.6393277 142.842484,30.6393277 L142.842484,30.6393277 L125.983887,30.6393277 C125.831115,30.6302521 125.676979,30.6257143 125.522388,30.6257143 L125.522388,30.6257143 L54.8220398,30.6257143 C50.1956785,30.6257143 46.4104739,26.8502521 46.4104739,22.2307563 C46.4104739,17.6112605 50.1956785,13.8357983 54.8220398,13.8357983 L54.8220398,13.8357983 L89.7536816,13.8357983 L94.0631314,0 L142.842484,0 Z M103.316309,80.9954622 L98.086588,97.7853782 L26.2268078,97.7853782 C21.6009012,97.7853782 17.8156966,94.0053782 17.8156966,89.3904202 C17.8156966,84.7709244 21.6009012,80.9954622 26.2268078,80.9954622 L103.316309,80.9954622 Z M113.776204,47.4156303 L108.546484,64.2055462 L8.41111122,64.2055462 C3.78520466,64.2055462 0,60.4255462 0,55.8105882 C0,51.1910924 3.78520466,47.4156303 8.41111122,47.4156303 L113.776204,47.4156303 Z" id="path-2"></path>
        <linearGradient x1="80.3229035%" y1="60.3537968%" x2="14.5567994%" y2="37.8968212%" id="linearGradient-4">
            <stop stop-color="#249F47" offset="0%"></stop>
            <stop stop-color="#F8EE61" offset="100%"></stop>
        </linearGradient>
    </defs>
    <g id="Page-1" stroke="none" stroke-width="1" fill="none" fill-rule="evenodd">
        <g id="Group-2">
            <g id="Group" transform="translate(0.000000, 10.000000)">
                <rect id="Rectangle" fill="#5A64EA" x="0" y="0" width="344" height="332" rx="130"></rect>
                <g filter="url(#filter-1)" id="Group-19">
                    <g transform="translate(60.000000, 85.000000)">
                        <mask id="mask-3" fill="white">
                            <use xlink:href="#path-2"></use>
                        </mask>
                        <g id="path-1"></g>
                        <path d="M89.7536816,13.8357983 L54.8220398,13.8357983 C50.1956785,13.8357983 46.4104739,17.6112605 46.4104739,22.2307563 C46.4104739,26.8502521 50.1956785,30.6257143 54.8220398,30.6257143 L125.522388,30.6257143 C125.676979,30.6257143 125.831115,30.6302521 125.983887,30.6393277 L142.842484,30.6393277 C170.597923,30.6393277 193.304605,53.3011765 193.304605,81 C193.304605,108.698824 170.597923,131.360672 142.842484,131.360672 L87.6266921,131.360672 L92.8568674,114.575294 L44.7859049,114.575294 C40.159089,114.575294 36.374339,118.350756 36.374339,122.965714 C36.374339,127.58521 40.159089,131.360672 44.7859049,131.360672 L53.1447281,131.360672 L43.6014655,162 L142.842484,162 C187.480164,162 224,125.552269 224,81 C224,36.4522689 187.480164,0 142.842484,0 L94.0631314,0 L89.7536816,13.8357983 Z M63.6046239,97.7853782 L26.2268078,97.7853782 C21.6009012,97.7853782 17.8156966,94.0053782 17.8156966,89.3904202 C17.8156966,84.7709244 21.6009012,80.9954622 26.2268078,80.9954622 L103.316309,80.9954622 L98.086588,97.7853782 L63.6046239,97.7853782 Z M8.41111122,64.2055462 C3.78520466,64.2055462 0,60.4255462 0,55.8105882 C0,51.1910924 3.78520466,47.4156303 8.41111122,47.4156303 L113.776204,47.4156303 L108.546484,64.2055462 L74.0640651,64.2055462 L8.41111122,64.2055462 Z" id="Fill-17" fill="url(#linearGradient-4)" fill-rule="nonzero" mask="url(#mask-3)"></path>
                    </g>
                </g>
            </g>
            <text id="DanceDance" font-family="Roboto-Regular, Roboto" font-size="300" font-weight="normal">
                <tspan x="418.081055" y="278" fill="#FFFFFF">Dance</tspan>
                <tspan x="1259.4873" y="278" font-family="Roboto-Bold, Roboto" font-weight="bold" fill="#5A64EA">Dance</tspan>
            </text>
        </g>
    </g>
</svg>