<?xml version="1.0" standalone="no"?>
<!DOCTYPE svg PUBLIC "-//W3C//DTD SVG 20010904//EN"
 "http://www.w3.org/TR/2001/REC-SVG-20010904/DTD/svg10.dtd">
<svg version="1.0" xmlns="http://www.w3.org/2000/svg"
 width="561.000000pt" height="1280.000000pt" viewBox="0 0 561.000000 1280.000000"
 preserveAspectRatio="xMidYMid meet">
<metadata>
Created by potrace 1.15, written by Peter Selinger 2001-2017
</metadata>
<g transform="translate(0.000000,1280.000000) scale(0.100000,-0.100000)"
fill="#000000" stroke="none">
<path d="M1774 12452 c-165 -133 -242 -250 -528 -807 -51 -98 -79 -190 -95
-307 -4 -32 -16 -67 -26 -78 -15 -17 -17 -30 -10 -107 10 -118 9 -161 -6 -426
-11 -203 -11 -239 4 -340 9 -61 22 -179 28 -262 11 -164 24 -225 67 -331 36
-86 39 -101 117 -469 66 -314 106 -446 196 -646 52 -118 76 -156 187 -298 80
-102 120 -176 182 -331 56 -140 75 -176 179 -333 105 -159 137 -219 180 -340
63 -179 73 -239 69 -387 -6 -185 -25 -217 -138 -234 -24 -4 -58 -15 -75 -26
-16 -10 -55 -23 -86 -29 -82 -15 -145 -47 -185 -97 -20 -24 -91 -92 -157 -150
-67 -59 -148 -133 -180 -163 -86 -82 -706 -932 -753 -1031 -9 -19 -37 -78 -62
-130 -58 -122 -77 -178 -104 -309 -21 -99 -22 -133 -24 -511 0 -279 -6 -467
-17 -605 -23 -269 -24 -252 22 -294 21 -20 47 -57 59 -83 39 -89 138 -126 372
-137 l135 -6 9 -150 c6 -116 5 -193 -8 -341 -20 -221 -18 -231 52 -265 25 -11
61 -33 80 -47 48 -37 153 -43 249 -14 60 18 106 21 394 25 l326 5 29 -55 c16
-31 49 -72 73 -93 l45 -38 -13 -99 c-14 -108 -39 -178 -67 -186 -11 -3 -38
-11 -61 -17 -60 -15 -66 -32 -55 -148 12 -115 30 -173 84 -266 22 -38 54 -99
71 -135 30 -65 30 -69 33 -246 2 -195 28 -384 58 -430 20 -30 53 -40 91 -25
15 6 32 7 36 3 4 -4 20 -54 34 -111 29 -114 40 -143 69 -186 38 -56 144 -83
206 -51 50 26 92 178 110 395 5 63 21 162 36 220 52 208 50 461 -6 675 l-31
120 7 222 c5 162 10 226 19 233 32 27 82 23 152 -11 66 -32 73 -33 228 -38
l160 -6 73 -39 c65 -34 83 -39 162 -44 87 -5 88 -5 116 25 21 22 48 35 99 48
39 10 82 24 96 31 40 20 79 72 79 104 0 34 23 50 70 50 47 0 104 67 184 216
38 71 85 153 103 183 l34 54 92 -6 c51 -3 126 -3 167 1 l75 7 5 60 5 60 45 -1
c25 0 68 -4 97 -8 l51 -8 8 48 c4 27 4 289 1 584 -6 607 3 523 -113 1049 -91
412 -164 640 -296 926 -33 72 -87 190 -119 264 -108 242 -272 544 -389 717
-114 167 -228 252 -380 284 -61 13 -77 21 -87 41 -15 30 -14 11 -14 525 1 409
1 425 26 547 14 70 25 147 25 172 0 43 -26 131 -84 290 -30 83 -34 187 -11
335 15 101 36 170 105 340 112 279 255 679 286 798 19 73 43 185 54 250 12 64
30 162 42 216 19 90 20 122 15 330 -3 137 -12 268 -21 321 -34 199 -58 430
-52 504 5 55 2 88 -11 128 -15 47 -15 60 -3 101 26 91 25 107 -7 130 -17 12
-44 48 -61 81 -18 33 -67 95 -108 138 -42 43 -108 111 -147 151 -63 65 -74 72
-109 72 -60 0 -116 35 -208 131 -85 89 -120 109 -120 68 0 -20 64 -123 103
-167 16 -17 18 -25 9 -34 -10 -10 -19 -9 -45 1 -85 36 -127 21 -104 -38 11
-30 10 -33 -17 -55 -40 -31 -30 -56 22 -56 21 0 47 -7 58 -15 10 -8 33 -15 51
-15 29 0 34 -5 63 -64 35 -74 121 -154 205 -191 65 -29 73 -40 91 -117 47
-199 57 -480 24 -688 -14 -87 -26 -244 -35 -445 -15 -347 -19 -369 -95 -535
-26 -58 -60 -134 -75 -170 -66 -157 -135 -276 -219 -374 -46 -54 -111 -144
-145 -200 -33 -56 -83 -123 -111 -151 -29 -27 -56 -60 -61 -72 -5 -13 -14 -23
-22 -23 -23 0 -97 61 -101 83 -11 52 -14 438 -5 507 15 109 18 120 34 120 22
0 30 43 30 162 0 103 -1 108 -27 135 -34 35 -65 124 -79 223 -13 89 -21 107
-94 196 -98 120 -192 164 -351 164 -131 0 -183 -14 -268 -71 -60 -40 -76 -56
-90 -92 -9 -24 -27 -54 -41 -67 -38 -36 -85 -159 -85 -222 0 -64 15 -154 37
-222 13 -40 13 -53 4 -69 -17 -26 -7 -104 25 -195 22 -61 32 -76 67 -100 45
-30 178 -227 198 -291 31 -106 19 -283 -23 -336 -25 -33 -41 -30 -137 26 -132
76 -182 149 -296 439 -31 80 -95 224 -141 321 -91 191 -103 236 -124 460 -19
209 -32 303 -51 399 -13 63 -19 127 -18 190 1 52 -3 145 -10 205 -7 61 -9 140
-6 177 7 66 6 68 -19 78 -25 9 -26 13 -26 81 l0 71 63 62 c35 33 81 90 102
126 48 84 157 223 198 254 51 39 157 85 222 97 71 12 105 32 105 59 0 17 -7
20 -52 20 -29 -1 -71 -4 -94 -9 -22 -4 -49 -4 -60 0 -17 6 -16 8 11 19 55 22
119 39 178 46 61 7 90 25 85 53 -3 12 -20 17 -81 22 -102 9 -121 24 -41 35 71
10 83 14 94 35 17 30 -4 49 -53 49 -23 0 -100 -7 -172 -16 -102 -12 -145 -22
-198 -46 -37 -17 -70 -28 -73 -25 -14 13 76 148 149 224 52 54 78 87 75 100
-6 32 -42 26 -94 -15z"/>
</g>
</svg>
