<?xml version="1.0" standalone="no"?>
<!DOCTYPE svg PUBLIC "-//W3C//DTD SVG 20010904//EN"
 "http://www.w3.org/TR/2001/REC-SVG-20010904/DTD/svg10.dtd">
<svg version="1.0" xmlns="http://www.w3.org/2000/svg"
 width="1280.000000pt" height="1230.000000pt" viewBox="0 0 1280.000000 1230.000000"
 preserveAspectRatio="xMidYMid meet">
<metadata>
Created by potrace 1.15, written by Peter Selinger 2001-2017
</metadata>
<g transform="translate(0.000000,1230.000000) scale(0.100000,-0.100000)"
fill="#000000" stroke="none">
<path d="M10090 12293 c-202 -7 -608 -42 -740 -64 -36 -6 -141 -36 -235 -66
-144 -48 -184 -57 -262 -61 -69 -3 -106 0 -143 12 -39 13 -59 14 -88 7 -80
-21 -258 -31 -576 -31 -583 0 -754 -25 -887 -131 -50 -39 -99 -123 -99 -168 0
-107 83 -303 180 -425 111 -140 267 -245 427 -287 64 -17 127 -22 348 -29 284
-9 338 -17 440 -64 28 -13 66 -36 85 -51 l35 -27 -385 5 c-462 7 -640 23 -900
83 -147 34 -703 220 -1375 459 -1068 380 -1461 496 -2035 600 -384 70 -524 71
-1090 5 -96 -11 -256 -25 -356 -32 -180 -11 -180 -11 -211 11 -62 46 -135 47
-211 3 -44 -25 -115 -105 -127 -141 -16 -52 -178 -59 -394 -17 -73 14 -155 26
-182 26 -34 0 -66 9 -108 30 -109 56 -197 73 -376 72 -88 0 -218 -7 -290 -16
-72 -9 -188 -19 -259 -23 -124 -6 -130 -7 -169 -37 -80 -62 -114 -180 -97
-340 14 -130 46 -311 68 -382 65 -207 51 -355 -45 -481 -28 -36 -28 -38 -28
-182 0 -154 13 -231 62 -381 46 -141 158 -351 265 -496 20 -28 52 -79 70 -114
73 -141 214 -200 478 -200 207 0 391 -38 682 -141 331 -117 543 -187 619 -204
72 -17 77 -20 103 -62 59 -93 176 -169 401 -263 55 -22 141 -63 190 -89 50
-26 134 -67 188 -91 185 -81 380 -200 638 -391 162 -121 166 -122 914 -435
l320 -133 38 -63 c171 -281 449 -501 804 -637 91 -36 127 -60 148 -101 43 -83
-14 -214 -120 -276 -35 -20 -61 -26 -127 -29 -140 -7 -255 -56 -362 -154 -81
-74 -191 -252 -255 -413 -51 -129 -63 -369 -30 -602 41 -292 163 -513 354
-640 209 -140 270 -168 410 -193 227 -39 456 22 688 185 301 211 519 399 629
543 57 75 68 81 182 100 121 20 256 -9 290 -65 7 -11 35 -59 62 -106 41 -72
80 -116 245 -280 206 -205 282 -302 314 -403 27 -81 77 -165 154 -252 86 -99
128 -167 139 -226 5 -26 32 -87 61 -137 59 -103 97 -183 258 -542 63 -140 137
-296 164 -347 l49 -92 0 -178 c0 -98 -5 -236 -10 -308 -6 -71 -10 -214 -11
-316 0 -204 15 -327 55 -455 25 -76 25 -77 6 -113 -26 -53 -40 -140 -40 -260
0 -61 -6 -129 -15 -161 -16 -61 -10 -102 27 -175 33 -64 38 -94 28 -169 -24
-168 -108 -248 -290 -277 -41 -6 -102 -22 -135 -34 -33 -13 -107 -35 -165 -50
-155 -38 -224 -63 -268 -95 -44 -31 -86 -83 -96 -116 -7 -21 -4 -22 121 -28
210 -10 368 -26 450 -45 76 -18 401 -42 574 -41 90 0 230 23 293 48 110 43
176 118 198 225 l12 54 -41 39 c-27 26 -45 54 -53 84 -15 56 -8 177 15 241 14
40 21 48 49 53 71 14 88 80 41 163 l-25 46 20 66 c67 225 104 566 130 1192 8
187 17 278 45 449 60 370 67 533 30 740 -22 123 -47 200 -118 362 -130 295
-137 320 -137 559 0 207 -9 306 -55 604 -54 358 -59 402 -59 580 1 283 39 420
178 633 295 455 667 1108 1030 1812 229 441 388 702 498 812 43 43 49 81 19
120 -11 13 -60 55 -109 92 -49 37 -94 78 -99 89 -49 109 -70 143 -137 219
-109 124 -136 171 -136 231 0 43 4 54 34 81 18 18 74 49 124 70 124 51 156 74
160 113 2 18 -2 41 -7 52 -21 38 154 129 437 227 102 35 128 50 265 148 263
189 311 221 408 279 119 72 249 124 364 148 50 10 91 19 93 19 1 0 2 15 2 34
0 60 -54 81 -127 51 -33 -14 -38 -14 -55 1 -33 30 -22 66 57 185 41 63 75 119
75 125 0 6 16 37 35 69 68 114 80 168 79 365 -1 174 -1 175 -31 235 -85 167
-251 324 -467 440 l-81 44 -370 30 c-774 63 -1288 82 -1755 64z m-8002 -1419
c136 -18 287 -56 362 -91 80 -37 104 -42 219 -54 227 -22 421 -73 803 -211
303 -110 500 -173 645 -209 67 -17 155 -45 195 -64 40 -18 134 -52 208 -76
117 -37 145 -50 210 -99 41 -31 169 -121 283 -200 224 -153 253 -166 352 -156
28 3 119 13 203 22 l152 16 56 -43 c156 -124 290 -214 389 -264 143 -71 156
-74 173 -37 7 16 24 34 38 40 34 16 94 14 124 -3 14 -8 34 -14 46 -15 33 0 54
-32 61 -91 3 -30 10 -59 15 -66 6 -7 52 -11 136 -11 177 -1 273 -30 329 -102
19 -24 17 -26 -49 -45 -62 -18 -244 -86 -548 -203 -277 -107 -502 -167 -665
-178 -82 -6 -108 -2 -305 40 -352 76 -371 83 -718 248 -639 304 -666 315 -754
333 -279 56 -431 114 -547 209 -40 33 -72 49 -130 65 -199 55 -351 78 -617 91
-181 9 -195 11 -230 35 -62 42 -107 50 -284 50 l-165 0 -165 111 c-193 131
-247 176 -299 253 -71 104 -176 187 -210 167 -19 -12 -33 -90 -27 -148 9 -74
23 -117 50 -148 52 -59 60 -131 21 -178 -60 -72 -299 -102 -440 -56 l-60 20 3
130 c7 334 59 519 180 643 64 65 123 98 229 131 l71 21 -5 59 c-7 74 -6 75
155 79 64 1 119 5 122 8 8 8 267 -7 388 -23z"/>
</g>
</svg>
