<?xml version="1.0" standalone="no"?>
<!DOCTYPE svg PUBLIC "-//W3C//DTD SVG 20010904//EN"
 "http://www.w3.org/TR/2001/REC-SVG-20010904/DTD/svg10.dtd">
<svg version="1.0" xmlns="http://www.w3.org/2000/svg"
 width="640.000000pt" height="1280.000000pt" viewBox="0 0 640.000000 1280.000000"
 preserveAspectRatio="xMidYMid meet">
<metadata>
Created by potrace 1.15, written by Peter Selinger 2001-2017
</metadata>
<g transform="translate(0.000000,1280.000000) scale(0.100000,-0.100000)"
fill="#000000" stroke="none">
<path d="M5764 12743 c4 -30 19 -67 40 -98 19 -27 51 -98 71 -157 33 -99 35
-113 29 -183 -4 -41 -10 -75 -15 -75 -4 0 -25 21 -46 47 -75 92 -127 143 -151
150 -70 17 -44 -110 38 -182 26 -23 60 -86 60 -112 0 -10 24 -64 52 -120 l53
-102 -22 -153 c-13 -84 -43 -259 -67 -388 -25 -129 -52 -271 -60 -315 -9 -44
-36 -143 -61 -220 -25 -77 -59 -205 -75 -285 -39 -187 -47 -209 -75 -220 -13
-5 -31 -20 -40 -33 -21 -32 -65 -210 -64 -255 2 -45 -64 -257 -138 -447 -30
-77 -73 -189 -94 -249 -29 -80 -50 -121 -77 -150 -30 -33 -43 -59 -62 -131
l-24 -90 -14 45 c-8 25 -16 92 -19 150 l-5 106 47 54 c72 84 78 105 72 245 -5
129 -22 192 -61 235 -36 39 -45 61 -33 81 8 13 3 28 -26 72 -20 31 -37 60 -37
65 0 6 -12 24 -26 41 -14 17 -21 31 -15 31 6 0 16 -9 23 -20 15 -23 28 -26 28
-6 0 8 -13 23 -29 32 -32 19 -51 52 -51 88 0 15 -9 27 -25 34 -17 8 -25 20
-25 37 0 14 -5 24 -10 23 -6 -2 -16 8 -23 22 -16 32 -48 40 -40 11 3 -12 1
-21 -5 -21 -6 0 -13 13 -17 30 -9 39 -42 80 -65 80 -18 0 -18 -3 5 -36 26 -38
33 -74 15 -74 -5 0 -10 9 -10 19 0 11 -16 38 -35 61 -19 23 -35 46 -35 51 0 5
-7 9 -16 9 -12 0 -14 -7 -8 -32 6 -31 6 -32 -12 -18 -11 8 -31 24 -45 37 -24
22 -26 23 -41 6 -9 -10 -18 -27 -20 -38 -2 -14 -11 -20 -28 -20 -19 0 -25 -5
-24 -22 1 -23 -11 -32 -18 -12 -2 7 -13 6 -33 -2 -17 -7 -33 -12 -37 -11 -5 1
-8 -9 -8 -23 0 -26 -24 -35 -33 -12 -3 6 -6 2 -6 -10 -1 -13 -5 -23 -11 -23
-5 0 -10 -10 -10 -22 -1 -21 -2 -22 -14 -5 -19 25 -24 22 -36 -23 -6 -22 -15
-38 -20 -35 -5 3 -11 -4 -15 -15 -3 -11 -19 -33 -36 -49 -16 -16 -29 -37 -29
-45 0 -9 -4 -16 -10 -16 -5 0 -10 -7 -10 -15 0 -9 -6 -18 -12 -20 -8 -3 -14
-27 -15 -60 -3 -60 -25 -115 -47 -115 -8 0 -13 -11 -13 -24 0 -17 4 -23 13
-19 12 4 12 0 3 -23 -6 -16 -12 -72 -12 -124 0 -81 5 -110 32 -193 24 -74 38
-101 55 -108 12 -6 30 -23 39 -37 26 -44 111 -132 128 -132 8 0 21 -6 28 -12
11 -11 13 -10 8 5 -9 25 -1 22 64 -25 66 -49 77 -71 86 -174 l6 -70 -38 4
c-31 4 -41 0 -65 -26 -45 -50 -99 -71 -197 -77 -48 -4 -107 -10 -130 -16 -34
-7 -59 -5 -117 10 -40 11 -206 40 -367 66 -343 54 -456 79 -484 105 -11 10
-65 37 -120 60 -55 23 -115 48 -132 56 -47 20 -93 9 -93 -22 0 -13 -2 -24 -4
-24 -14 0 -156 48 -236 80 -252 100 -445 152 -746 200 -140 23 -372 65 -444
80 -88 20 -186 27 -255 19 -38 -5 -133 -11 -210 -14 -131 -5 -185 -15 -342
-61 -7 -2 -10 -9 -7 -17 3 -9 -10 -20 -43 -32 -76 -28 -151 -63 -157 -73 -3
-5 3 -17 14 -27 21 -19 24 -18 110 12 8 2 -3 -11 -25 -31 -33 -29 -37 -37 -25
-46 8 -5 27 -10 42 -10 l28 0 -30 -49 c-34 -55 -36 -66 -14 -75 22 -8 49 8 75
46 63 89 183 177 216 160 10 -6 44 -15 75 -21 47 -10 63 -20 97 -56 23 -25 41
-51 41 -59 0 -8 -31 -48 -69 -90 -95 -101 -118 -149 -87 -175 24 -20 91 15
147 78 27 31 76 79 108 106 32 28 82 78 110 113 77 93 86 97 168 78 87 -19
207 -69 458 -189 110 -52 243 -111 297 -131 127 -47 350 -112 468 -136 52 -11
96 -24 98 -30 9 -25 41 -53 77 -67 95 -34 281 -82 300 -77 22 5 324 -93 493
-161 51 -21 121 -58 154 -84 34 -25 86 -65 117 -88 31 -23 79 -56 107 -73 28
-16 65 -48 82 -69 45 -55 116 -239 142 -367 26 -121 37 -150 79 -193 22 -22
30 -43 36 -87 4 -32 15 -85 26 -119 26 -84 61 -305 63 -396 l1 -76 -60 -78
c-86 -111 -172 -240 -207 -310 -48 -94 -84 -138 -161 -196 -126 -95 -250 -199
-336 -283 -114 -111 -356 -402 -470 -566 -212 -304 -311 -425 -548 -673 -80
-83 -149 -166 -174 -207 l-41 -69 1 -132 c2 -153 5 -172 39 -218 86 -116 335
-118 510 -5 37 24 87 50 112 58 234 75 344 112 393 132 133 56 380 95 543 87
77 -4 107 -2 130 10 16 8 52 19 79 25 61 13 144 40 250 80 44 17 113 36 153
43 66 11 76 11 104 -5 30 -18 87 -18 181 1 l27 6 0 -144 c-1 -79 -5 -250 -9
-379 -10 -272 -1 -476 29 -680 25 -168 24 -325 -5 -575 -14 -125 -16 -207 -12
-496 3 -190 1 -422 -5 -515 -6 -93 -12 -279 -13 -414 -2 -135 -8 -269 -14
-299 -6 -29 -11 -99 -11 -155 0 -123 -11 -195 -49 -317 -37 -119 -67 -188 -94
-217 -17 -18 -21 -37 -24 -99 -4 -115 16 -136 157 -167 41 -9 124 -30 183 -47
60 -17 114 -28 121 -26 8 3 17 18 20 34 4 15 16 35 27 43 14 11 20 32 24 85 3
39 10 93 15 120 6 28 9 77 8 110 -1 33 4 95 11 139 9 55 10 85 3 100 -6 11
-13 59 -16 106 -3 47 -12 156 -20 242 -11 116 -12 166 -4 188 6 17 7 49 4 72
-4 24 -2 46 4 53 10 12 26 78 36 155 3 19 14 105 25 190 17 123 32 190 75 323
108 334 144 517 151 773 5 148 2 215 -17 375 -19 159 -22 224 -17 359 10 278
35 442 143 930 56 251 118 572 135 700 7 52 13 185 14 295 0 165 -4 224 -23
334 -20 116 -23 163 -21 371 1 147 -3 250 -9 271 -10 30 -54 289 -65 379 -2
19 1 118 8 220 7 102 16 271 20 377 7 174 9 194 27 210 34 31 74 123 112 258
44 158 45 172 50 410 2 105 9 215 14 245 29 144 36 281 37 640 0 206 4 400 9
430 5 30 21 87 36 125 15 39 35 95 45 125 10 30 26 64 37 76 18 21 88 271 88
318 0 12 -7 32 -16 44 -13 19 -14 33 -4 104 7 46 24 124 40 173 39 124 79 389
86 575 5 117 1 222 -16 425 -12 149 -19 288 -15 310 7 53 26 409 31 608 3 138
1 168 -17 235 -23 83 -44 132 -58 132 -22 0 -33 -32 -27 -73 4 -23 10 -71 13
-107 l5 -65 -40 50 c-70 87 -197 195 -230 195 -12 0 -13 -10 -8 -47z m-1115
-7281 l65 -17 4 -195 4 -195 -49 -14 c-26 -8 -69 -25 -95 -38 -46 -22 -51 -23
-143 -12 -107 13 -129 9 -120 -21 6 -18 2 -20 -33 -20 -42 0 -101 -39 -167
-110 -50 -54 -93 -65 -240 -64 -108 0 -143 4 -204 23 -90 29 -96 22 114 128
251 127 319 177 510 368 67 67 90 84 200 152 58 36 67 37 154 15z"/>
</g>
</svg>
